<?xml version="1.0" standalone="no"?>
<svg xmlns:xlink="http://www.w3.org/1999/xlink" id="wave" style="transform:rotate(180deg); transition: 0.3s" viewBox="0 0 1440 220" version="1.1" xmlns="http://www.w3.org/2000/svg"><defs><linearGradient id="sw-gradient-0" x1="0" x2="0" y1="1" y2="0"><stop stop-color="rgba(255, 145, 0, 1)" offset="0%"/><stop stop-color="rgba(255, 145, 0, 0.74)" offset="100%"/></linearGradient></defs><path style="transform:translate(0, 0px); opacity:1" fill="url(#sw-gradient-0)" d="M0,22L48,36.7C96,51,192,81,288,106.3C384,132,480,154,576,139.3C672,125,768,73,864,51.3C960,29,1056,37,1152,40.3C1248,44,1344,44,1440,51.3C1536,59,1632,73,1728,88C1824,103,1920,117,2016,132C2112,147,2208,161,2304,150.3C2400,139,2496,103,2592,84.3C2688,66,2784,66,2880,58.7C2976,51,3072,37,3168,55C3264,73,3360,125,3456,121C3552,117,3648,59,3744,33C3840,7,3936,15,4032,44C4128,73,4224,125,4320,128.3C4416,132,4512,88,4608,73.3C4704,59,4800,73,4896,77C4992,81,5088,73,5184,88C5280,103,5376,139,5472,128.3C5568,117,5664,59,5760,62.3C5856,66,5952,132,6048,143C6144,154,6240,110,6336,110C6432,110,6528,154,6624,161.3C6720,169,6816,139,6864,124.7L6912,110L6912,220L6864,220C6816,220,6720,220,6624,220C6528,220,6432,220,6336,220C6240,220,6144,220,6048,220C5952,220,5856,220,5760,220C5664,220,5568,220,5472,220C5376,220,5280,220,5184,220C5088,220,4992,220,4896,220C4800,220,4704,220,4608,220C4512,220,4416,220,4320,220C4224,220,4128,220,4032,220C3936,220,3840,220,3744,220C3648,220,3552,220,3456,220C3360,220,3264,220,3168,220C3072,220,2976,220,2880,220C2784,220,2688,220,2592,220C2496,220,2400,220,2304,220C2208,220,2112,220,2016,220C1920,220,1824,220,1728,220C1632,220,1536,220,1440,220C1344,220,1248,220,1152,220C1056,220,960,220,864,220C768,220,672,220,576,220C480,220,384,220,288,220C192,220,96,220,48,220L0,220Z"/></svg>