<?xml version="1.0" standalone="no"?>
<svg xmlns:xlink="http://www.w3.org/1999/xlink" id="wave" style="transform:rotate(180deg); transition: 0.3s" viewBox="0 0 1440 170" version="1.1" xmlns="http://www.w3.org/2000/svg"><defs><linearGradient id="sw-gradient-0" x1="0" x2="0" y1="1" y2="0"><stop stop-color="rgba(255, 145, 0, 1)" offset="0%"/><stop stop-color="rgba(255, 145, 0, 0.78)" offset="100%"/></linearGradient></defs><path style="transform:translate(0, 0px); opacity:1" fill="url(#sw-gradient-0)" d="M0,119L18.5,104.8C36.9,91,74,62,111,68C147.7,74,185,113,222,113.3C258.5,113,295,74,332,53.8C369.2,34,406,34,443,48.2C480,62,517,91,554,90.7C590.8,91,628,62,665,53.8C701.5,45,738,57,775,59.5C812.3,62,849,57,886,48.2C923.1,40,960,28,997,42.5C1033.8,57,1071,96,1108,102C1144.6,108,1182,79,1218,65.2C1255.4,51,1292,51,1329,53.8C1366.2,57,1403,62,1440,59.5C1476.9,57,1514,45,1551,48.2C1587.7,51,1625,68,1662,65.2C1698.5,62,1735,40,1772,39.7C1809.2,40,1846,62,1883,82.2C1920,102,1957,119,1994,127.5C2030.8,136,2068,136,2105,116.2C2141.5,96,2178,57,2215,42.5C2252.3,28,2289,40,2326,51C2363.1,62,2400,74,2437,70.8C2473.8,68,2511,51,2548,48.2C2584.6,45,2622,57,2640,62.3L2658.5,68L2658.5,170L2640,170C2621.5,170,2585,170,2548,170C2510.8,170,2474,170,2437,170C2400,170,2363,170,2326,170C2289.2,170,2252,170,2215,170C2178.5,170,2142,170,2105,170C2067.7,170,2031,170,1994,170C1956.9,170,1920,170,1883,170C1846.2,170,1809,170,1772,170C1735.4,170,1698,170,1662,170C1624.6,170,1588,170,1551,170C1513.8,170,1477,170,1440,170C1403.1,170,1366,170,1329,170C1292.3,170,1255,170,1218,170C1181.5,170,1145,170,1108,170C1070.8,170,1034,170,997,170C960,170,923,170,886,170C849.2,170,812,170,775,170C738.5,170,702,170,665,170C627.7,170,591,170,554,170C516.9,170,480,170,443,170C406.2,170,369,170,332,170C295.4,170,258,170,222,170C184.6,170,148,170,111,170C73.8,170,37,170,18,170L0,170Z"/></svg>