<?xml version="1.0" standalone="no"?>
<svg xmlns:xlink="http://www.w3.org/1999/xlink" id="wave" style="transform:rotate(180deg); transition: 0.3s" viewBox="0 0 1440 450" version="1.1" xmlns="http://www.w3.org/2000/svg"><defs><linearGradient id="sw-gradient-0" x1="0" x2="0" y1="1" y2="0"><stop stop-color="rgba(255, 145, 0, 1)" offset="0%"/><stop stop-color="rgba(255, 145, 0, 0.78)" offset="100%"/></linearGradient></defs><path style="transform:translate(0, 0px); opacity:1" fill="url(#sw-gradient-0)" d="M0,315L80,277.5C160,240,320,165,480,150C640,135,800,180,960,217.5C1120,255,1280,285,1440,255C1600,225,1760,135,1920,97.5C2080,60,2240,75,2400,127.5C2560,180,2720,270,2880,285C3040,300,3200,240,3360,247.5C3520,255,3680,330,3840,337.5C4000,345,4160,285,4320,277.5C4480,270,4640,315,4800,337.5C4960,360,5120,360,5280,367.5C5440,375,5600,390,5760,375C5920,360,6080,315,6240,292.5C6400,270,6560,270,6720,292.5C6880,315,7040,360,7200,330C7360,300,7520,195,7680,135C7840,75,8000,60,8160,112.5C8320,165,8480,285,8640,330C8800,375,8960,345,9120,315C9280,285,9440,255,9600,262.5C9760,270,9920,315,10080,285C10240,255,10400,150,10560,142.5C10720,135,10880,225,11040,285C11200,345,11360,375,11440,390L11520,405L11520,450L11440,450C11360,450,11200,450,11040,450C10880,450,10720,450,10560,450C10400,450,10240,450,10080,450C9920,450,9760,450,9600,450C9440,450,9280,450,9120,450C8960,450,8800,450,8640,450C8480,450,8320,450,8160,450C8000,450,7840,450,7680,450C7520,450,7360,450,7200,450C7040,450,6880,450,6720,450C6560,450,6400,450,6240,450C6080,450,5920,450,5760,450C5600,450,5440,450,5280,450C5120,450,4960,450,4800,450C4640,450,4480,450,4320,450C4160,450,4000,450,3840,450C3680,450,3520,450,3360,450C3200,450,3040,450,2880,450C2720,450,2560,450,2400,450C2240,450,2080,450,1920,450C1760,450,1600,450,1440,450C1280,450,1120,450,960,450C800,450,640,450,480,450C320,450,160,450,80,450L0,450Z"/></svg>