<?xml version="1.0" standalone="no"?>
<svg xmlns:xlink="http://www.w3.org/1999/xlink" id="wave" style="transform:rotate(180deg); transition: 0.3s" viewBox="0 0 1440 310" version="1.1" xmlns="http://www.w3.org/2000/svg"><defs><linearGradient id="sw-gradient-0" x1="0" x2="0" y1="1" y2="0"><stop stop-color="rgba(255, 145, 0, 1)" offset="0%"/><stop stop-color="rgba(255, 145, 0, 0.74)" offset="100%"/></linearGradient></defs><path style="transform:translate(0, 0px); opacity:1" fill="url(#sw-gradient-0)" d="M0,248L80,217C160,186,320,124,480,87.8C640,52,800,41,960,51.7C1120,62,1280,93,1440,93C1600,93,1760,62,1920,41.3C2080,21,2240,10,2400,31C2560,52,2720,103,2880,113.7C3040,124,3200,93,3360,72.3C3520,52,3680,41,3840,36.2C4000,31,4160,31,4320,56.8C4480,83,4640,134,4800,155C4960,176,5120,165,5280,134.3C5440,103,5600,52,5760,25.8C5920,0,6080,0,6240,31C6400,62,6560,124,6720,165.3C6880,207,7040,227,7200,227.3C7360,227,7520,207,7680,206.7C7840,207,8000,227,8160,237.7C8320,248,8480,248,8640,227.3C8800,207,8960,165,9120,129.2C9280,93,9440,62,9600,56.8C9760,52,9920,72,10080,113.7C10240,155,10400,217,10560,206.7C10720,196,10880,114,11040,67.2C11200,21,11360,10,11440,5.2L11520,0L11520,310L11440,310C11360,310,11200,310,11040,310C10880,310,10720,310,10560,310C10400,310,10240,310,10080,310C9920,310,9760,310,9600,310C9440,310,9280,310,9120,310C8960,310,8800,310,8640,310C8480,310,8320,310,8160,310C8000,310,7840,310,7680,310C7520,310,7360,310,7200,310C7040,310,6880,310,6720,310C6560,310,6400,310,6240,310C6080,310,5920,310,5760,310C5600,310,5440,310,5280,310C5120,310,4960,310,4800,310C4640,310,4480,310,4320,310C4160,310,4000,310,3840,310C3680,310,3520,310,3360,310C3200,310,3040,310,2880,310C2720,310,2560,310,2400,310C2240,310,2080,310,1920,310C1760,310,1600,310,1440,310C1280,310,1120,310,960,310C800,310,640,310,480,310C320,310,160,310,80,310L0,310Z"/></svg>