<?xml version="1.0" standalone="no"?>
<svg xmlns:xlink="http://www.w3.org/1999/xlink" id="wave" style="transform:rotate(180deg); transition: 0.3s" viewBox="0 0 1440 250" version="1.1" xmlns="http://www.w3.org/2000/svg"><defs><linearGradient id="sw-gradient-0" x1="0" x2="0" y1="1" y2="0"><stop stop-color="rgba(255, 145, 0, 1)" offset="0%"/><stop stop-color="rgba(255, 145, 0, 0.74)" offset="100%"/></linearGradient></defs><path style="transform:translate(0, 0px); opacity:1" fill="url(#sw-gradient-0)" d="M0,175L80,154.2C160,133,320,92,480,62.5C640,33,800,17,960,29.2C1120,42,1280,83,1440,87.5C1600,92,1760,58,1920,50C2080,42,2240,58,2400,91.7C2560,125,2720,175,2880,166.7C3040,158,3200,92,3360,70.8C3520,50,3680,75,3840,104.2C4000,133,4160,167,4320,175C4480,183,4640,167,4800,141.7C4960,117,5120,83,5280,79.2C5440,75,5600,100,5760,129.2C5920,158,6080,192,6240,200C6400,208,6560,192,6720,179.2C6880,167,7040,158,7200,154.2C7360,150,7520,150,7680,133.3C7840,117,8000,83,8160,79.2C8320,75,8480,100,8640,95.8C8800,92,8960,58,9120,58.3C9280,58,9440,92,9600,108.3C9760,125,9920,125,10080,129.2C10240,133,10400,142,10560,141.7C10720,142,10880,133,11040,141.7C11200,150,11360,175,11440,187.5L11520,200L11520,250L11440,250C11360,250,11200,250,11040,250C10880,250,10720,250,10560,250C10400,250,10240,250,10080,250C9920,250,9760,250,9600,250C9440,250,9280,250,9120,250C8960,250,8800,250,8640,250C8480,250,8320,250,8160,250C8000,250,7840,250,7680,250C7520,250,7360,250,7200,250C7040,250,6880,250,6720,250C6560,250,6400,250,6240,250C6080,250,5920,250,5760,250C5600,250,5440,250,5280,250C5120,250,4960,250,4800,250C4640,250,4480,250,4320,250C4160,250,4000,250,3840,250C3680,250,3520,250,3360,250C3200,250,3040,250,2880,250C2720,250,2560,250,2400,250C2240,250,2080,250,1920,250C1760,250,1600,250,1440,250C1280,250,1120,250,960,250C800,250,640,250,480,250C320,250,160,250,80,250L0,250Z"/></svg>