<?xml version="1.0" standalone="no"?>
<svg xmlns:xlink="http://www.w3.org/1999/xlink" id="wave" style="transform:rotate(180deg); transition: 0.3s" viewBox="0 0 1440 220" version="1.1" xmlns="http://www.w3.org/2000/svg"><defs><linearGradient id="sw-gradient-0" x1="0" x2="0" y1="1" y2="0"><stop stop-color="rgba(255, 145, 0, 1)" offset="0%"/><stop stop-color="rgba(255, 145, 0, 0.74)" offset="100%"/></linearGradient></defs><path style="transform:translate(0, 0px); opacity:1" fill="url(#sw-gradient-0)" d="M0,44L48,69.7C96,95,192,147,288,157.7C384,169,480,139,576,113.7C672,88,768,66,864,47.7C960,29,1056,15,1152,22C1248,29,1344,59,1440,80.7C1536,103,1632,117,1728,102.7C1824,88,1920,44,2016,51.3C2112,59,2208,117,2304,150.3C2400,183,2496,191,2592,172.3C2688,154,2784,110,2880,102.7C2976,95,3072,125,3168,121C3264,117,3360,81,3456,80.7C3552,81,3648,117,3744,143C3840,169,3936,183,4032,157.7C4128,132,4224,66,4320,58.7C4416,51,4512,103,4608,110C4704,117,4800,81,4896,77C4992,73,5088,103,5184,110C5280,117,5376,103,5472,110C5568,117,5664,147,5760,146.7C5856,147,5952,117,6048,91.7C6144,66,6240,44,6336,51.3C6432,59,6528,95,6624,95.3C6720,95,6816,59,6864,40.3L6912,22L6912,220L6864,220C6816,220,6720,220,6624,220C6528,220,6432,220,6336,220C6240,220,6144,220,6048,220C5952,220,5856,220,5760,220C5664,220,5568,220,5472,220C5376,220,5280,220,5184,220C5088,220,4992,220,4896,220C4800,220,4704,220,4608,220C4512,220,4416,220,4320,220C4224,220,4128,220,4032,220C3936,220,3840,220,3744,220C3648,220,3552,220,3456,220C3360,220,3264,220,3168,220C3072,220,2976,220,2880,220C2784,220,2688,220,2592,220C2496,220,2400,220,2304,220C2208,220,2112,220,2016,220C1920,220,1824,220,1728,220C1632,220,1536,220,1440,220C1344,220,1248,220,1152,220C1056,220,960,220,864,220C768,220,672,220,576,220C480,220,384,220,288,220C192,220,96,220,48,220L0,220Z"/></svg>