<?xml version="1.0" standalone="no"?>
<svg xmlns:xlink="http://www.w3.org/1999/xlink" id="wave" style="transform:rotate(180deg); transition: 0.3s" viewBox="0 0 1440 450" version="1.1" xmlns="http://www.w3.org/2000/svg"><defs><linearGradient id="sw-gradient-0" x1="0" x2="0" y1="1" y2="0"><stop stop-color="rgba(255, 145, 0, 1)" offset="0%"/><stop stop-color="rgba(255, 145, 0, 0.78)" offset="100%"/></linearGradient></defs><path style="transform:translate(0, 0px); opacity:1" fill="url(#sw-gradient-0)" d="M0,90L120,75C240,60,480,30,720,82.5C960,135,1200,270,1440,337.5C1680,405,1920,405,2160,352.5C2400,300,2640,195,2880,127.5C3120,60,3360,30,3600,67.5C3840,105,4080,210,4320,232.5C4560,255,4800,195,5040,157.5C5280,120,5520,105,5760,150C6000,195,6240,300,6480,352.5C6720,405,6960,405,7200,360C7440,315,7680,225,7920,165C8160,105,8400,75,8640,112.5C8880,150,9120,255,9360,285C9600,315,9840,270,10080,247.5C10320,225,10560,225,10800,255C11040,285,11280,345,11520,322.5C11760,300,12000,195,12240,195C12480,195,12720,300,12960,322.5C13200,345,13440,285,13680,255C13920,225,14160,225,14400,255C14640,285,14880,345,15120,337.5C15360,330,15600,255,15840,247.5C16080,240,16320,300,16560,300C16800,300,17040,240,17160,210L17280,180L17280,450L17160,450C17040,450,16800,450,16560,450C16320,450,16080,450,15840,450C15600,450,15360,450,15120,450C14880,450,14640,450,14400,450C14160,450,13920,450,13680,450C13440,450,13200,450,12960,450C12720,450,12480,450,12240,450C12000,450,11760,450,11520,450C11280,450,11040,450,10800,450C10560,450,10320,450,10080,450C9840,450,9600,450,9360,450C9120,450,8880,450,8640,450C8400,450,8160,450,7920,450C7680,450,7440,450,7200,450C6960,450,6720,450,6480,450C6240,450,6000,450,5760,450C5520,450,5280,450,5040,450C4800,450,4560,450,4320,450C4080,450,3840,450,3600,450C3360,450,3120,450,2880,450C2640,450,2400,450,2160,450C1920,450,1680,450,1440,450C1200,450,960,450,720,450C480,450,240,450,120,450L0,450Z"/></svg>