<?xml version="1.0" standalone="no"?>
<svg xmlns:xlink="http://www.w3.org/1999/xlink" id="wave" style="transform:rotate(180deg); transition: 0.3s" viewBox="0 0 1440 180" version="1.1" xmlns="http://www.w3.org/2000/svg"><defs><linearGradient id="sw-gradient-0" x1="0" x2="0" y1="1" y2="0"><stop stop-color="rgba(255, 145, 0, 1)" offset="0%"/><stop stop-color="rgba(255, 145, 0, 0.74)" offset="100%"/></linearGradient></defs><path style="transform:translate(0, 0px); opacity:1" fill="url(#sw-gradient-0)" d="M0,90L80,78C160,66,320,42,480,27C640,12,800,6,960,6C1120,6,1280,12,1440,15C1600,18,1760,18,1920,33C2080,48,2240,78,2400,75C2560,72,2720,36,2880,18C3040,0,3200,0,3360,3C3520,6,3680,12,3840,33C4000,54,4160,90,4320,102C4480,114,4640,102,4800,93C4960,84,5120,78,5280,81C5440,84,5600,96,5760,102C5920,108,6080,108,6240,99C6400,90,6560,72,6720,54C6880,36,7040,18,7200,30C7360,42,7520,84,7680,108C7840,132,8000,138,8160,135C8320,132,8480,120,8640,108C8800,96,8960,84,9120,87C9280,90,9440,108,9600,96C9760,84,9920,42,10080,45C10240,48,10400,96,10560,114C10720,132,10880,120,11040,111C11200,102,11360,96,11440,93L11520,90L11520,180L11440,180C11360,180,11200,180,11040,180C10880,180,10720,180,10560,180C10400,180,10240,180,10080,180C9920,180,9760,180,9600,180C9440,180,9280,180,9120,180C8960,180,8800,180,8640,180C8480,180,8320,180,8160,180C8000,180,7840,180,7680,180C7520,180,7360,180,7200,180C7040,180,6880,180,6720,180C6560,180,6400,180,6240,180C6080,180,5920,180,5760,180C5600,180,5440,180,5280,180C5120,180,4960,180,4800,180C4640,180,4480,180,4320,180C4160,180,4000,180,3840,180C3680,180,3520,180,3360,180C3200,180,3040,180,2880,180C2720,180,2560,180,2400,180C2240,180,2080,180,1920,180C1760,180,1600,180,1440,180C1280,180,1120,180,960,180C800,180,640,180,480,180C320,180,160,180,80,180L0,180Z"/></svg>