<?xml version="1.0" standalone="no"?>
<svg xmlns:xlink="http://www.w3.org/1999/xlink" id="wave" style="transform:rotate(0deg); transition: 0.3s" viewBox="0 0 1440 450" version="1.1" xmlns="http://www.w3.org/2000/svg"><defs><linearGradient id="sw-gradient-0" x1="0" x2="0" y1="1" y2="0"><stop stop-color="rgba(255, 145, 0, 1)" offset="0%"/><stop stop-color="rgba(255, 145, 0, 0.78)" offset="100%"/></linearGradient></defs><path style="transform:translate(0, 0px); opacity:1" fill="url(#sw-gradient-0)" d="M0,315L60,277.5C120,240,240,165,360,180C480,195,600,300,720,300C840,300,960,195,1080,142.5C1200,90,1320,90,1440,127.5C1560,165,1680,240,1800,240C1920,240,2040,165,2160,142.5C2280,120,2400,150,2520,157.5C2640,165,2760,150,2880,127.5C3000,105,3120,75,3240,112.5C3360,150,3480,255,3600,270C3720,285,3840,210,3960,172.5C4080,135,4200,135,4320,142.5C4440,150,4560,165,4680,157.5C4800,150,4920,120,5040,127.5C5160,135,5280,180,5400,172.5C5520,165,5640,105,5760,105C5880,105,6000,165,6120,217.5C6240,270,6360,315,6480,337.5C6600,360,6720,360,6840,307.5C6960,255,7080,150,7200,112.5C7320,75,7440,105,7560,135C7680,165,7800,195,7920,187.5C8040,180,8160,135,8280,127.5C8400,120,8520,150,8580,165L8640,180L8640,450L8580,450C8520,450,8400,450,8280,450C8160,450,8040,450,7920,450C7800,450,7680,450,7560,450C7440,450,7320,450,7200,450C7080,450,6960,450,6840,450C6720,450,6600,450,6480,450C6360,450,6240,450,6120,450C6000,450,5880,450,5760,450C5640,450,5520,450,5400,450C5280,450,5160,450,5040,450C4920,450,4800,450,4680,450C4560,450,4440,450,4320,450C4200,450,4080,450,3960,450C3840,450,3720,450,3600,450C3480,450,3360,450,3240,450C3120,450,3000,450,2880,450C2760,450,2640,450,2520,450C2400,450,2280,450,2160,450C2040,450,1920,450,1800,450C1680,450,1560,450,1440,450C1320,450,1200,450,1080,450C960,450,840,450,720,450C600,450,480,450,360,450C240,450,120,450,60,450L0,450Z"/></svg>