<?xml version="1.0" standalone="no"?>
<svg xmlns:xlink="http://www.w3.org/1999/xlink" id="wave" style="transform:rotate(180deg); transition: 0.3s" viewBox="0 0 1440 250" version="1.1" xmlns="http://www.w3.org/2000/svg"><defs><linearGradient id="sw-gradient-0" x1="0" x2="0" y1="1" y2="0"><stop stop-color="rgba(255, 145, 0, 1)" offset="0%"/><stop stop-color="rgba(255, 145, 0, 0.74)" offset="100%"/></linearGradient></defs><path style="transform:translate(0, 0px); opacity:1" fill="url(#sw-gradient-0)" d="M0,225L80,225C160,225,320,225,480,195.8C640,167,800,108,960,70.8C1120,33,1280,17,1440,25C1600,33,1760,67,1920,100C2080,133,2240,167,2400,187.5C2560,208,2720,217,2880,195.8C3040,175,3200,125,3360,104.2C3520,83,3680,92,3840,108.3C4000,125,4160,150,4320,145.8C4480,142,4640,108,4800,87.5C4960,67,5120,58,5280,83.3C5440,108,5600,167,5760,166.7C5920,167,6080,108,6240,87.5C6400,67,6560,83,6720,104.2C6880,125,7040,150,7200,141.7C7360,133,7520,92,7680,70.8C7840,50,8000,50,8160,66.7C8320,83,8480,117,8640,120.8C8800,125,8960,100,9120,87.5C9280,75,9440,75,9600,100C9760,125,9920,175,10080,183.3C10240,192,10400,158,10560,129.2C10720,100,10880,75,11040,62.5C11200,50,11360,50,11440,50L11520,50L11520,250L11440,250C11360,250,11200,250,11040,250C10880,250,10720,250,10560,250C10400,250,10240,250,10080,250C9920,250,9760,250,9600,250C9440,250,9280,250,9120,250C8960,250,8800,250,8640,250C8480,250,8320,250,8160,250C8000,250,7840,250,7680,250C7520,250,7360,250,7200,250C7040,250,6880,250,6720,250C6560,250,6400,250,6240,250C6080,250,5920,250,5760,250C5600,250,5440,250,5280,250C5120,250,4960,250,4800,250C4640,250,4480,250,4320,250C4160,250,4000,250,3840,250C3680,250,3520,250,3360,250C3200,250,3040,250,2880,250C2720,250,2560,250,2400,250C2240,250,2080,250,1920,250C1760,250,1600,250,1440,250C1280,250,1120,250,960,250C800,250,640,250,480,250C320,250,160,250,80,250L0,250Z"/></svg>