<?xml version="1.0" standalone="no"?>
<svg xmlns:xlink="http://www.w3.org/1999/xlink" id="wave" style="transform:rotate(180deg); transition: 0.3s" viewBox="0 0 1440 450" version="1.1" xmlns="http://www.w3.org/2000/svg"><defs><linearGradient id="sw-gradient-0" x1="0" x2="0" y1="1" y2="0"><stop stop-color="rgba(255, 145, 0, 1)" offset="0%"/><stop stop-color="rgba(255, 145, 0, 0.78)" offset="100%"/></linearGradient></defs><path style="transform:translate(0, 0px); opacity:1" fill="url(#sw-gradient-0)" d="M0,315L80,315C160,315,320,315,480,300C640,285,800,255,960,255C1120,255,1280,285,1440,270C1600,255,1760,195,1920,202.5C2080,210,2240,285,2400,285C2560,285,2720,210,2880,210C3040,210,3200,285,3360,307.5C3520,330,3680,300,3840,262.5C4000,225,4160,180,4320,150C4480,120,4640,105,4800,90C4960,75,5120,60,5280,52.5C5440,45,5600,45,5760,75C5920,105,6080,165,6240,157.5C6400,150,6560,75,6720,105C6880,135,7040,270,7200,277.5C7360,285,7520,165,7680,105C7840,45,8000,45,8160,82.5C8320,120,8480,195,8640,232.5C8800,270,8960,270,9120,292.5C9280,315,9440,360,9600,345C9760,330,9920,255,10080,225C10240,195,10400,210,10560,232.5C10720,255,10880,285,11040,307.5C11200,330,11360,345,11440,352.5L11520,360L11520,450L11440,450C11360,450,11200,450,11040,450C10880,450,10720,450,10560,450C10400,450,10240,450,10080,450C9920,450,9760,450,9600,450C9440,450,9280,450,9120,450C8960,450,8800,450,8640,450C8480,450,8320,450,8160,450C8000,450,7840,450,7680,450C7520,450,7360,450,7200,450C7040,450,6880,450,6720,450C6560,450,6400,450,6240,450C6080,450,5920,450,5760,450C5600,450,5440,450,5280,450C5120,450,4960,450,4800,450C4640,450,4480,450,4320,450C4160,450,4000,450,3840,450C3680,450,3520,450,3360,450C3200,450,3040,450,2880,450C2720,450,2560,450,2400,450C2240,450,2080,450,1920,450C1760,450,1600,450,1440,450C1280,450,1120,450,960,450C800,450,640,450,480,450C320,450,160,450,80,450L0,450Z"/></svg>