<?xml version="1.0" standalone="no"?>
<svg xmlns:xlink="http://www.w3.org/1999/xlink" id="wave" style="transform:rotate(180deg); transition: 0.3s" viewBox="0 0 1440 450" version="1.1" xmlns="http://www.w3.org/2000/svg"><defs><linearGradient id="sw-gradient-0" x1="0" x2="0" y1="1" y2="0"><stop stop-color="rgba(255, 145, 0, 1)" offset="0%"/><stop stop-color="rgba(255, 145, 0, 0.78)" offset="100%"/></linearGradient></defs><path style="transform:translate(0, 0px); opacity:1" fill="url(#sw-gradient-0)" d="M0,225L80,232.5C160,240,320,255,480,225C640,195,800,120,960,90C1120,60,1280,75,1440,82.5C1600,90,1760,90,1920,142.5C2080,195,2240,300,2400,292.5C2560,285,2720,165,2880,120C3040,75,3200,105,3360,120C3520,135,3680,135,3840,180C4000,225,4160,315,4320,360C4480,405,4640,405,4800,360C4960,315,5120,225,5280,187.5C5440,150,5600,165,5760,210C5920,255,6080,330,6240,367.5C6400,405,6560,405,6720,375C6880,345,7040,285,7200,232.5C7360,180,7520,135,7680,157.5C7840,180,8000,270,8160,262.5C8320,255,8480,150,8640,142.5C8800,135,8960,225,9120,225C9280,225,9440,135,9600,97.5C9760,60,9920,75,10080,82.5C10240,90,10400,90,10560,105C10720,120,10880,150,11040,150C11200,150,11360,120,11440,105L11520,90L11520,450L11440,450C11360,450,11200,450,11040,450C10880,450,10720,450,10560,450C10400,450,10240,450,10080,450C9920,450,9760,450,9600,450C9440,450,9280,450,9120,450C8960,450,8800,450,8640,450C8480,450,8320,450,8160,450C8000,450,7840,450,7680,450C7520,450,7360,450,7200,450C7040,450,6880,450,6720,450C6560,450,6400,450,6240,450C6080,450,5920,450,5760,450C5600,450,5440,450,5280,450C5120,450,4960,450,4800,450C4640,450,4480,450,4320,450C4160,450,4000,450,3840,450C3680,450,3520,450,3360,450C3200,450,3040,450,2880,450C2720,450,2560,450,2400,450C2240,450,2080,450,1920,450C1760,450,1600,450,1440,450C1280,450,1120,450,960,450C800,450,640,450,480,450C320,450,160,450,80,450L0,450Z"/></svg>