<?xml version="1.0" standalone="no"?>
<svg xmlns:xlink="http://www.w3.org/1999/xlink" id="wave" style="transform:rotate(0deg); transition: 0.3s" viewBox="0 0 1440 450" version="1.1" xmlns="http://www.w3.org/2000/svg"><defs><linearGradient id="sw-gradient-0" x1="0" x2="0" y1="1" y2="0"><stop stop-color="rgba(255, 145, 0, 1)" offset="0%"/><stop stop-color="rgba(255, 145, 0, 0.78)" offset="100%"/></linearGradient></defs><path style="transform:translate(0, 0px); opacity:1" fill="url(#sw-gradient-0)" d="M0,315L60,322.5C120,330,240,345,360,315C480,285,600,210,720,180C840,150,960,165,1080,187.5C1200,210,1320,240,1440,262.5C1560,285,1680,300,1800,255C1920,210,2040,105,2160,60C2280,15,2400,30,2520,37.5C2640,45,2760,45,2880,90C3000,135,3120,225,3240,217.5C3360,210,3480,105,3600,97.5C3720,90,3840,180,3960,195C4080,210,4200,150,4320,105C4440,60,4560,30,4680,67.5C4800,105,4920,210,5040,240C5160,270,5280,225,5400,240C5520,255,5640,330,5760,360C5880,390,6000,375,6120,352.5C6240,330,6360,300,6480,307.5C6600,315,6720,360,6840,375C6960,390,7080,375,7200,330C7320,285,7440,210,7560,195C7680,180,7800,225,7920,210C8040,195,8160,120,8280,82.5C8400,45,8520,45,8580,45L8640,45L8640,450L8580,450C8520,450,8400,450,8280,450C8160,450,8040,450,7920,450C7800,450,7680,450,7560,450C7440,450,7320,450,7200,450C7080,450,6960,450,6840,450C6720,450,6600,450,6480,450C6360,450,6240,450,6120,450C6000,450,5880,450,5760,450C5640,450,5520,450,5400,450C5280,450,5160,450,5040,450C4920,450,4800,450,4680,450C4560,450,4440,450,4320,450C4200,450,4080,450,3960,450C3840,450,3720,450,3600,450C3480,450,3360,450,3240,450C3120,450,3000,450,2880,450C2760,450,2640,450,2520,450C2400,450,2280,450,2160,450C2040,450,1920,450,1800,450C1680,450,1560,450,1440,450C1320,450,1200,450,1080,450C960,450,840,450,720,450C600,450,480,450,360,450C240,450,120,450,60,450L0,450Z"/></svg>