<?xml version="1.0" standalone="no"?>
<svg xmlns:xlink="http://www.w3.org/1999/xlink" id="wave" style="transform:rotate(0deg); transition: 0.3s" viewBox="0 0 1440 310" version="1.1" xmlns="http://www.w3.org/2000/svg"><defs><linearGradient id="sw-gradient-0" x1="0" x2="0" y1="1" y2="0"><stop stop-color="rgba(255, 145, 0, 1)" offset="0%"/><stop stop-color="rgba(255, 179, 11, 1)" offset="100%"/></linearGradient></defs><path style="transform:translate(0, 0px); opacity:1" fill="url(#sw-gradient-0)" d="M0,186L80,191.2C160,196,320,207,480,211.8C640,217,800,217,960,222.2C1120,227,1280,238,1440,201.5C1600,165,1760,83,1920,41.3C2080,0,2240,0,2400,15.5C2560,31,2720,62,2880,67.2C3040,72,3200,52,3360,82.7C3520,114,3680,196,3840,217C4000,238,4160,196,4320,180.8C4480,165,4640,176,4800,175.7C4960,176,5120,165,5280,160.2C5440,155,5600,155,5760,155C5920,155,6080,155,6240,139.5C6400,124,6560,93,6720,77.5C6880,62,7040,62,7200,82.7C7360,103,7520,145,7680,134.3C7840,124,8000,62,8160,67.2C8320,72,8480,145,8640,165.3C8800,186,8960,155,9120,129.2C9280,103,9440,83,9600,82.7C9760,83,9920,103,10080,134.3C10240,165,10400,207,10560,201.5C10720,196,10880,145,11040,144.7C11200,145,11360,196,11440,222.2L11520,248L11520,310L11440,310C11360,310,11200,310,11040,310C10880,310,10720,310,10560,310C10400,310,10240,310,10080,310C9920,310,9760,310,9600,310C9440,310,9280,310,9120,310C8960,310,8800,310,8640,310C8480,310,8320,310,8160,310C8000,310,7840,310,7680,310C7520,310,7360,310,7200,310C7040,310,6880,310,6720,310C6560,310,6400,310,6240,310C6080,310,5920,310,5760,310C5600,310,5440,310,5280,310C5120,310,4960,310,4800,310C4640,310,4480,310,4320,310C4160,310,4000,310,3840,310C3680,310,3520,310,3360,310C3200,310,3040,310,2880,310C2720,310,2560,310,2400,310C2240,310,2080,310,1920,310C1760,310,1600,310,1440,310C1280,310,1120,310,960,310C800,310,640,310,480,310C320,310,160,310,80,310L0,310Z"/><defs><linearGradient id="sw-gradient-1" x1="0" x2="0" y1="1" y2="0"><stop stop-color="rgba(255, 145, 0, 1)" offset="0%"/><stop stop-color="rgba(255, 179, 11, 1)" offset="100%"/></linearGradient></defs><path style="transform:translate(0, 50px); opacity:0.9" fill="url(#sw-gradient-1)" d="M0,0L80,46.5C160,93,320,186,480,186C640,186,800,93,960,51.7C1120,10,1280,21,1440,51.7C1600,83,1760,134,1920,155C2080,176,2240,165,2400,149.8C2560,134,2720,114,2880,134.3C3040,155,3200,217,3360,201.5C3520,186,3680,93,3840,67.2C4000,41,4160,83,4320,93C4480,103,4640,83,4800,98.2C4960,114,5120,165,5280,170.5C5440,176,5600,134,5760,103.3C5920,72,6080,52,6240,46.5C6400,41,6560,52,6720,67.2C6880,83,7040,103,7200,139.5C7360,176,7520,227,7680,253.2C7840,279,8000,279,8160,242.8C8320,207,8480,134,8640,129.2C8800,124,8960,186,9120,222.2C9280,258,9440,269,9600,273.8C9760,279,9920,279,10080,263.5C10240,248,10400,217,10560,217C10720,217,10880,248,11040,237.7C11200,227,11360,176,11440,149.8L11520,124L11520,310L11440,310C11360,310,11200,310,11040,310C10880,310,10720,310,10560,310C10400,310,10240,310,10080,310C9920,310,9760,310,9600,310C9440,310,9280,310,9120,310C8960,310,8800,310,8640,310C8480,310,8320,310,8160,310C8000,310,7840,310,7680,310C7520,310,7360,310,7200,310C7040,310,6880,310,6720,310C6560,310,6400,310,6240,310C6080,310,5920,310,5760,310C5600,310,5440,310,5280,310C5120,310,4960,310,4800,310C4640,310,4480,310,4320,310C4160,310,4000,310,3840,310C3680,310,3520,310,3360,310C3200,310,3040,310,2880,310C2720,310,2560,310,2400,310C2240,310,2080,310,1920,310C1760,310,1600,310,1440,310C1280,310,1120,310,960,310C800,310,640,310,480,310C320,310,160,310,80,310L0,310Z"/><defs><linearGradient id="sw-gradient-2" x1="0" x2="0" y1="1" y2="0"><stop stop-color="rgba(255, 145, 0, 1)" offset="0%"/><stop stop-color="rgba(255, 179, 11, 1)" offset="100%"/></linearGradient></defs><path style="transform:translate(0, 100px); opacity:0.8" fill="url(#sw-gradient-2)" d="M0,31L80,31C160,31,320,31,480,67.2C640,103,800,176,960,206.7C1120,238,1280,227,1440,186C1600,145,1760,72,1920,62C2080,52,2240,103,2400,118.8C2560,134,2720,114,2880,93C3040,72,3200,52,3360,51.7C3520,52,3680,72,3840,98.2C4000,124,4160,155,4320,149.8C4480,145,4640,103,4800,82.7C4960,62,5120,62,5280,51.7C5440,41,5600,21,5760,31C5920,41,6080,83,6240,118.8C6400,155,6560,186,6720,191.2C6880,196,7040,176,7200,160.2C7360,145,7520,134,7680,108.5C7840,83,8000,41,8160,41.3C8320,41,8480,83,8640,98.2C8800,114,8960,103,9120,103.3C9280,103,9440,114,9600,129.2C9760,145,9920,165,10080,165.3C10240,165,10400,145,10560,129.2C10720,114,10880,103,11040,103.3C11200,103,11360,114,11440,118.8L11520,124L11520,310L11440,310C11360,310,11200,310,11040,310C10880,310,10720,310,10560,310C10400,310,10240,310,10080,310C9920,310,9760,310,9600,310C9440,310,9280,310,9120,310C8960,310,8800,310,8640,310C8480,310,8320,310,8160,310C8000,310,7840,310,7680,310C7520,310,7360,310,7200,310C7040,310,6880,310,6720,310C6560,310,6400,310,6240,310C6080,310,5920,310,5760,310C5600,310,5440,310,5280,310C5120,310,4960,310,4800,310C4640,310,4480,310,4320,310C4160,310,4000,310,3840,310C3680,310,3520,310,3360,310C3200,310,3040,310,2880,310C2720,310,2560,310,2400,310C2240,310,2080,310,1920,310C1760,310,1600,310,1440,310C1280,310,1120,310,960,310C800,310,640,310,480,310C320,310,160,310,80,310L0,310Z"/><defs><linearGradient id="sw-gradient-3" x1="0" x2="0" y1="1" y2="0"><stop stop-color="rgba(255, 145, 0, 1)" offset="0%"/><stop stop-color="rgba(255, 179, 11, 1)" offset="100%"/></linearGradient></defs><path style="transform:translate(0, 150px); opacity:0.7" fill="url(#sw-gradient-3)" d="M0,186L80,170.5C160,155,320,124,480,124C640,124,800,155,960,180.8C1120,207,1280,227,1440,201.5C1600,176,1760,103,1920,103.3C2080,103,2240,176,2400,186C2560,196,2720,145,2880,134.3C3040,124,3200,155,3360,165.3C3520,176,3680,165,3840,144.7C4000,124,4160,93,4320,113.7C4480,134,4640,207,4800,217C4960,227,5120,176,5280,149.8C5440,124,5600,124,5760,103.3C5920,83,6080,41,6240,51.7C6400,62,6560,124,6720,155C6880,186,7040,186,7200,160.2C7360,134,7520,83,7680,51.7C7840,21,8000,10,8160,10.3C8320,10,8480,21,8640,20.7C8800,21,8960,10,9120,10.3C9280,10,9440,21,9600,51.7C9760,83,9920,134,10080,165.3C10240,196,10400,207,10560,217C10720,227,10880,238,11040,206.7C11200,176,11360,103,11440,67.2L11520,31L11520,310L11440,310C11360,310,11200,310,11040,310C10880,310,10720,310,10560,310C10400,310,10240,310,10080,310C9920,310,9760,310,9600,310C9440,310,9280,310,9120,310C8960,310,8800,310,8640,310C8480,310,8320,310,8160,310C8000,310,7840,310,7680,310C7520,310,7360,310,7200,310C7040,310,6880,310,6720,310C6560,310,6400,310,6240,310C6080,310,5920,310,5760,310C5600,310,5440,310,5280,310C5120,310,4960,310,4800,310C4640,310,4480,310,4320,310C4160,310,4000,310,3840,310C3680,310,3520,310,3360,310C3200,310,3040,310,2880,310C2720,310,2560,310,2400,310C2240,310,2080,310,1920,310C1760,310,1600,310,1440,310C1280,310,1120,310,960,310C800,310,640,310,480,310C320,310,160,310,80,310L0,310Z"/></svg>