<?xml version="1.0" standalone="no"?>
<svg xmlns:xlink="http://www.w3.org/1999/xlink" id="wave" style="transform:rotate(0deg); transition: 0.3s" viewBox="0 0 1440 450" version="1.1" xmlns="http://www.w3.org/2000/svg"><defs><linearGradient id="sw-gradient-0" x1="0" x2="0" y1="1" y2="0"><stop stop-color="rgba(255, 145, 0, 1)" offset="0%"/><stop stop-color="rgba(255, 145, 0, 0.78)" offset="100%"/></linearGradient></defs><path style="transform:translate(0, 0px); opacity:1" fill="url(#sw-gradient-0)" d="M0,180L120,202.5C240,225,480,270,720,270C960,270,1200,225,1440,232.5C1680,240,1920,300,2160,300C2400,300,2640,240,2880,240C3120,240,3360,300,3600,285C3840,270,4080,180,4320,142.5C4560,105,4800,120,5040,172.5C5280,225,5520,315,5760,322.5C6000,330,6240,255,6480,232.5C6720,210,6960,240,7200,277.5C7440,315,7680,360,7920,352.5C8160,345,8400,285,8640,255C8880,225,9120,225,9360,232.5C9600,240,9840,255,10080,270C10320,285,10560,300,10800,292.5C11040,285,11280,255,11520,255C11760,255,12000,285,12240,247.5C12480,210,12720,105,12960,67.5C13200,30,13440,60,13680,67.5C13920,75,14160,60,14400,105C14640,150,14880,255,15120,307.5C15360,360,15600,360,15840,337.5C16080,315,16320,270,16560,255C16800,240,17040,255,17160,262.5L17280,270L17280,450L17160,450C17040,450,16800,450,16560,450C16320,450,16080,450,15840,450C15600,450,15360,450,15120,450C14880,450,14640,450,14400,450C14160,450,13920,450,13680,450C13440,450,13200,450,12960,450C12720,450,12480,450,12240,450C12000,450,11760,450,11520,450C11280,450,11040,450,10800,450C10560,450,10320,450,10080,450C9840,450,9600,450,9360,450C9120,450,8880,450,8640,450C8400,450,8160,450,7920,450C7680,450,7440,450,7200,450C6960,450,6720,450,6480,450C6240,450,6000,450,5760,450C5520,450,5280,450,5040,450C4800,450,4560,450,4320,450C4080,450,3840,450,3600,450C3360,450,3120,450,2880,450C2640,450,2400,450,2160,450C1920,450,1680,450,1440,450C1200,450,960,450,720,450C480,450,240,450,120,450L0,450Z"/></svg>